<?xml version="1.0" standalone="no"?><!DOCTYPE svg PUBLIC "-//W3C//DTD SVG 1.1//EN" "http://www.w3.org/Graphics/SVG/1.1/DTD/svg11.dtd"><svg t="1708503580709" class="icon" viewBox="0 0 1024 1024" version="1.1" xmlns="http://www.w3.org/2000/svg" p-id="3586" xmlns:xlink="http://www.w3.org/1999/xlink" width="200" height="200"><path d="M147.968 99.072a34.56 34.56 0 0 0-51.925333 45.226667l2.986666 3.626666 776.96 776.96a34.56 34.56 0 0 0 51.968-45.184l-2.986666-3.626666L148.053333 99.114667z m19.712 176.682667l-5.589333 8.277333A415.573333 415.573333 0 0 0 94.421333 512c0 230.613333 186.965333 417.578667 417.578667 417.578667a415.658667 415.658667 0 0 0 227.882667-67.584l8.362666-5.674667-49.962666-49.92-11.221334 6.912a348.288 348.288 0 0 1-29.568 15.36l-15.274666 6.613333-15.616 5.845334-5.205334-5.973334c9.258667-18.176 17.749333-38.656 25.258667-61.013333l4.693333-14.72-56.32-56.32-1.962666 8.277333c-3.925333 15.488-8.277333 30.165333-13.056 43.946667l-4.906667 13.568-5.205333 12.885333c-12.458667 29.610667-26.709333 52.906667-40.832 67.114667-7.594667 7.68-13.354667 11.52-17.066667 11.52-3.712 0-9.472-3.882667-17.066667-11.52-14.122667-14.208-28.330667-37.461333-40.832-67.114667-23.808-56.490667-39.424-130.901333-44.501333-211.925333l-0.981333-18.816 4.266666-4.437333 25.6-0.042667-97.834666-97.834667-0.469334 7.594667-0.810666 16.981333-4.266667 4.096H170.026667l-4.266667-4.693333a346.325333 346.325333 0 0 1 45.952-137.514667l5.888-9.514666-49.92-49.92z m167.466667 270.848l4.266666 4.096c4.053333 105.386667 24.618667 201.813333 56.96 271.658666l6.229334 12.8-5.205334 5.973334a348.714667 348.714667 0 0 1-230.016-277.717334l-1.578666-12.074666 4.266666-4.693334h165.077334zM512 94.421333l-15.189333 0.256A415.658667 415.658667 0 0 0 284.16 162.005333l-8.362667 5.674667 49.92 49.92 11.178667-6.826667c9.514667-5.546667 19.285333-10.666667 29.269333-15.274666l15.189334-6.570667 16.128-6.058667 5.162666 5.973334c-9.258667 18.176-17.749333 38.656-25.258666 61.013333l-4.736 14.677333 56.32 56.32 2.005333-8.234666c3.925333-15.445333 8.277333-30.165333 13.056-43.946667l4.906667-13.568 5.205333-12.885333c12.458667-29.610667 26.709333-52.906667 40.832-67.114667 6.314667-6.4 11.392-10.112 15.36-11.178667l2.218667-0.298666 1.024 0.128c3.541333 0.853333 8.874667 4.608 15.530666 11.392 14.122667 14.165333 28.330667 37.418667 40.832 67.072 23.808 56.490667 39.424 130.901333 44.501334 211.925333l0.981333 18.816-4.266667 4.437333h-25.6l97.749334 97.792 0.512-7.552 0.810666-16.938666 4.266667-4.096h165.12l4.224 4.693333a346.325333 346.325333 0 0 1-45.909333 137.514667l-5.888 9.472 49.92 49.962666 5.632-8.277333a415.189333 415.189333 0 0 0 66.56-197.333333l0.810666-15.274667 0.256-15.36c0-226.688-180.693333-411.221333-405.888-417.408L512 94.421333z m114.602667 88.448a348.8 348.8 0 0 1 230.016 277.76l1.578666 12.032-4.266666 4.736h-165.034667l-4.266667-4.096c-4.053333-104.746667-24.405333-200.661333-56.448-270.464l-6.784-14.037333 5.205334-5.930667z" p-id="3587"></path></svg>